<svg preserveAspectRatio="none" width="100%" height="100%" overflow="visible" style="display: block;" viewBox="0 0 24 24" fill="none" xmlns="http://www.w3.org/2000/svg">
<g id="material-symbols:balance-rounded">
<path id="Vector" d="M3.3335 22C3.05017 22 2.81283 21.8989 2.6215 21.6968C2.43017 21.4947 2.33417 21.2449 2.3335 20.9474C2.33283 20.6498 2.42883 20.4 2.6215 20.1979C2.81417 19.9958 3.0515 19.8947 3.3335 19.8947H11.3335V8.13158C10.9002 7.97368 10.5252 7.72807 10.2085 7.39473C9.89183 7.0614 9.6585 6.66667 9.5085 6.21053H6.3335L9.0835 13C9.16683 13.193 9.21683 13.3905 9.2335 13.5926C9.25016 13.7947 9.24183 14.0007 9.2085 14.2105C9.0585 15.0175 8.64616 15.6403 7.9715 16.0789C7.29683 16.5175 6.58416 16.7368 5.8335 16.7368C5.08283 16.7368 4.3705 16.5175 3.6965 16.0789C3.0225 15.6403 2.60983 15.0175 2.4585 14.2105C2.42517 14 2.41683 13.794 2.4335 13.5926C2.45017 13.3912 2.50017 13.1937 2.5835 13L5.3335 6.21053H4.3335C4.05017 6.21053 3.81283 6.10982 3.6215 5.90842C3.43017 5.70702 3.33417 5.45684 3.3335 5.15789C3.33283 4.85895 3.42883 4.60912 3.6215 4.40842C3.81417 4.20772 4.0515 4.10667 4.3335 4.10526H9.5085C9.7085 3.49123 10.0668 2.98702 10.5835 2.59263C11.1002 2.19825 11.6835 2.0007 12.3335 2C12.9835 1.9993 13.5668 2.19684 14.0835 2.59263C14.6002 2.98842 14.9585 3.49263 15.1585 4.10526H20.3335C20.6168 4.10526 20.8545 4.20632 21.0465 4.40842C21.2385 4.61053 21.3342 4.86035 21.3335 5.15789C21.3328 5.45544 21.2368 5.70561 21.0455 5.90842C20.8542 6.11123 20.6168 6.21193 20.3335 6.21053H19.3335L22.0835 13C22.1668 13.193 22.2168 13.3905 22.2335 13.5926C22.2502 13.7947 22.2418 14.0007 22.2085 14.2105C22.0585 15.0175 21.6462 15.6403 20.9715 16.0789C20.2968 16.5175 19.5842 16.7368 18.8335 16.7368C18.0828 16.7368 17.3705 16.5175 16.6965 16.0789C16.0225 15.6403 15.6098 15.0175 15.4585 14.2105C15.4252 14 15.4168 13.794 15.4335 13.5926C15.4502 13.3912 15.5002 13.1937 15.5835 13L18.3335 6.21053H15.1585C15.0085 6.66667 14.7752 7.0614 14.4585 7.39473C14.1418 7.72807 13.7668 7.97368 13.3335 8.13158V19.8947H21.3335C21.6168 19.8947 21.8545 19.9958 22.0465 20.1979C22.2385 20.4 22.3342 20.6498 22.3335 20.9474C22.3328 21.2449 22.2368 21.4951 22.0455 21.6979C21.8542 21.9007 21.6168 22.0014 21.3335 22H3.3335ZM16.9585 13.5789H20.7085L18.8335 9L16.9585 13.5789ZM3.9585 13.5789H7.7085L5.8335 9L3.9585 13.5789ZM12.3335 6.21053C12.6168 6.21053 12.8545 6.10947 13.0465 5.90737C13.2385 5.70526 13.3342 5.45544 13.3335 5.15789C13.3328 4.86035 13.2368 4.61053 13.0455 4.40842C12.8542 4.20632 12.6168 4.10526 12.3335 4.10526C12.0502 4.10526 11.8128 4.20632 11.6215 4.40842C11.4302 4.61053 11.3342 4.86035 11.3335 5.15789C11.3328 5.45544 11.4288 5.70561 11.6215 5.90842C11.8142 6.11123 12.0515 6.21193 12.3335 6.21053Z" fill="var(--fill-0, #003E93)"/>
</g>
</svg>
