<svg preserveAspectRatio="none" width="100%" height="100%" overflow="visible" style="display: block;" viewBox="0 0 22 22" fill="none" xmlns="http://www.w3.org/2000/svg">
<g id="clarity:talk-bubbles-solid" clip-path="url(#clip0_96_28)">
<path id="Vector" d="M4.88889 11.6111V6.72222H3.05556C2.56933 6.72222 2.10301 6.91538 1.75919 7.25919C1.41538 7.60301 1.22222 8.06933 1.22222 8.55556V19.5556C1.22313 19.669 1.25563 19.78 1.31607 19.8761C1.37652 19.9722 1.46252 20.0495 1.56444 20.0994C1.66264 20.1441 1.7709 20.162 1.87823 20.1512C1.98557 20.1405 2.08815 20.1015 2.17556 20.0383L5.32278 17.7222H13.5361C13.7677 17.7291 13.9983 17.6883 14.2135 17.6024C14.4287 17.5165 14.624 17.3874 14.7873 17.223C14.9506 17.0585 15.0783 16.8624 15.1627 16.6465C15.2471 16.4307 15.2862 16.1999 15.2778 15.9683V15.2778H8.55556C7.5831 15.2778 6.65046 14.8915 5.96283 14.2038C5.2752 13.5162 4.88889 12.5836 4.88889 11.6111Z" fill="var(--fill-0, #003E93)"/>
<path id="Vector_2" d="M18.9444 2.44444H8.55556C8.06933 2.44444 7.60301 2.6376 7.25919 2.98142C6.91538 3.32523 6.72222 3.79155 6.72222 4.27778V11.6111C6.72222 12.0973 6.91538 12.5637 7.25919 12.9075C7.60301 13.2513 8.06933 13.4444 8.55556 13.4444H16.8361L19.7572 15.7117C19.8441 15.7759 19.9464 15.8159 20.0537 15.8277C20.1611 15.8395 20.2696 15.8227 20.3683 15.7789C20.4723 15.7294 20.5602 15.6514 20.6218 15.5541C20.6835 15.4568 20.7163 15.3441 20.7167 15.2289V4.27778C20.7169 3.80195 20.5322 3.34466 20.2015 3.00255C19.8708 2.66044 19.42 2.46031 18.9444 2.44444Z" fill="var(--fill-0, #003E93)"/>
<g id="Vector_3">
</g>
</g>
<defs>
<clipPath id="clip0_96_28">
<rect width="22" height="22" fill="white"/>
</clipPath>
</defs>
</svg>
