<svg preserveAspectRatio="none" width="100%" height="100%" overflow="visible" style="display: block;" viewBox="0 0 24 24" fill="none" xmlns="http://www.w3.org/2000/svg">
<g id="gravity-ui:folder-magnifier">
<path id="Vector" fill-rule="evenodd" clip-rule="evenodd" d="M10.3185 6.875L9.6585 6.215L8.727 5.285C8.30545 4.86292 7.73354 4.62552 7.137 4.625H5.25C4.65326 4.625 4.08097 4.86205 3.65901 5.28401C3.23705 5.70597 3 6.27826 3 6.875V16.625C3 17.2217 3.23705 17.794 3.65901 18.216C4.08097 18.6379 4.65326 18.875 5.25 18.875H18.75C19.3467 18.875 19.919 18.6379 20.341 18.216C20.7629 17.794 21 17.2217 21 16.625V9.125C21 8.52826 20.7629 7.95597 20.341 7.53401C19.919 7.11205 19.3467 6.875 18.75 6.875H10.3185ZM5.25 2.375C4.05653 2.375 2.91193 2.8491 2.06802 3.69302C1.22411 4.53693 0.75 5.68152 0.75 6.875V16.625C0.75 17.8185 1.22411 18.9631 2.06802 19.807C2.91193 20.6509 4.05653 21.125 5.25 21.125H18.75C19.9435 21.125 21.0881 20.6509 21.932 19.807C22.7759 18.9631 23.25 17.8185 23.25 16.625V9.125C23.25 7.93152 22.7759 6.78693 21.932 5.94302C21.0881 5.0991 19.9435 4.625 18.75 4.625H11.25L10.3185 3.6935C9.90055 3.27543 9.40433 2.9438 8.85818 2.71757C8.31203 2.49133 7.72665 2.37493 7.1355 2.375H5.25ZM14.5755 13.859C14.99 13.0646 15.1063 12.1481 14.9035 11.2754C14.7006 10.4026 14.192 9.63135 13.4697 9.1012C12.7473 8.57105 11.859 8.31705 10.9656 8.38519C10.0722 8.45333 9.23275 8.83911 8.59918 9.47268C7.96561 10.1062 7.57983 10.9457 7.51169 11.8391C7.44355 12.7325 7.69755 13.6208 8.2277 14.3432C8.75785 15.0655 9.52912 15.5741 10.4019 15.777C11.2746 15.9798 12.1911 15.8635 12.9855 15.449L14.205 16.67C14.308 16.7805 14.4322 16.8692 14.5702 16.9307C14.7082 16.9922 14.8572 17.0252 15.0082 17.0279C15.1593 17.0306 15.3093 17.0028 15.4494 16.9462C15.5895 16.8896 15.7167 16.8054 15.8236 16.6986C15.9304 16.5917 16.0146 16.4645 16.0712 16.3244C16.1278 16.1843 16.1556 16.0343 16.1529 15.8832C16.1502 15.7322 16.1172 15.5832 16.0557 15.4452C15.9942 15.3072 15.9055 15.183 15.795 15.08L14.5755 13.859ZM11.25 13.625C10.8522 13.625 10.4706 13.467 10.1893 13.1857C9.90804 12.9044 9.75 12.5228 9.75 12.125C9.75 11.7272 9.90804 11.3456 10.1893 11.0643C10.4706 10.783 10.8522 10.625 11.25 10.625C11.6478 10.625 12.0294 10.783 12.3107 11.0643C12.592 11.3456 12.75 11.7272 12.75 12.125C12.75 12.5228 12.592 12.9044 12.3107 13.1857C12.0294 13.467 11.6478 13.625 11.25 13.625Z" fill="var(--fill-0, #003E93)"/>
</g>
</svg>
