<svg preserveAspectRatio="none" width="100%" height="100%" overflow="visible" style="display: block;" viewBox="0 0 26 26" fill="none" xmlns="http://www.w3.org/2000/svg">
<g id="Group">
<g id="Group_2">
<path id="Vector" d="M8 15C9.10457 15 10 14.1046 10 13C10 11.8954 9.10457 11 8 11C6.89543 11 6 11.8954 6 13C6 14.1046 6.89543 15 8 15Z" fill="var(--fill-0, #003E93)"/>
<path id="Vector_2" d="M13 15C14.1046 15 15 14.1046 15 13C15 11.8954 14.1046 11 13 11C11.8954 11 11 11.8954 11 13C11 14.1046 11.8954 15 13 15Z" fill="var(--fill-0, #003E93)"/>
<path id="Vector_3" d="M18 15C19.1046 15 20 14.1046 20 13C20 11.8954 19.1046 11 18 11C16.8954 11 16 11.8954 16 13C16 14.1046 16.8954 15 18 15Z" fill="var(--fill-0, #003E93)"/>
</g>
<path id="Vector_4" fill-rule="evenodd" clip-rule="evenodd" d="M13 24C19.075 24 24 19.075 24 13C24 6.925 19.075 2 13 2C6.925 2 2 6.925 2 13C2 19.075 6.925 24 13 24ZM13 26C20.18 26 26 20.18 26 13C26 5.82 20.18 0 13 0C5.82 0 0 5.82 0 13C0 20.18 5.82 26 13 26Z" fill="var(--fill-0, #003E93)"/>
</g>
</svg>
