<svg preserveAspectRatio="none" width="100%" height="100%" overflow="visible" style="display: block;" viewBox="0 0 19.5 19.5" fill="none" xmlns="http://www.w3.org/2000/svg">
<g id="Group">
<path id="Vector" d="M4.75 4.75L5.977 5.807C6.492 6.252 6.75 6.474 6.75 6.75C6.75 7.026 6.492 7.248 5.977 7.693L4.75 8.75M8.75 8.75H11.75" stroke="var(--stroke-0, #003E93)" stroke-width="1.5" stroke-linecap="round" stroke-linejoin="round"/>
<path id="Vector_2" d="M9.75 18.75C13.5 18.75 15.375 18.75 16.689 17.795C17.1134 17.4866 17.4866 17.1134 17.795 16.689C18.75 15.375 18.75 13.499 18.75 9.75C18.75 6.001 18.75 4.125 17.795 2.811C17.4866 2.3866 17.1134 2.01336 16.689 1.705C15.375 0.75 13.499 0.75 9.75 0.75C6.001 0.75 4.125 0.75 2.811 1.705C2.38667 2.01306 2.01344 2.38595 1.705 2.81C0.75 4.125 0.75 6.001 0.75 9.75C0.75 13.499 0.75 15.375 1.705 16.689C2.01336 17.1134 2.3866 17.4866 2.811 17.795C4.125 18.75 6.001 18.75 9.75 18.75Z" stroke="var(--stroke-0, #003E93)" stroke-width="1.5" stroke-linecap="round" stroke-linejoin="round"/>
</g>
</svg>
