<svg preserveAspectRatio="none" width="100%" height="100%" overflow="visible" style="display: block;" viewBox="0 0 19.9607 19.9798" fill="none" xmlns="http://www.w3.org/2000/svg">
<path id="Vector" fill-rule="evenodd" clip-rule="evenodd" d="M16.3644 0.542293C16.3339 0.419478 16.2713 0.306961 16.1831 0.216254C16.0949 0.125547 15.9841 0.0599065 15.8622 0.0260469C15.7403 -0.00781276 15.6116 -0.00867561 15.4892 0.0235466C15.3668 0.0557688 15.2552 0.119919 15.1658 0.209435L12.3086 3.06658C12.2215 3.1539 12.1585 3.26229 12.1257 3.38121C12.0929 3.50013 12.0914 3.62551 12.1215 3.74515L12.6358 5.80801L12.6158 5.82801L9.20007 9.24372C9.01081 9.44683 8.90778 9.71547 8.91268 9.99304C8.91757 10.2706 9.03002 10.5354 9.22632 10.7318C9.42263 10.9281 9.68746 11.0405 9.96504 11.0454C10.2426 11.0503 10.5112 10.9473 10.7144 10.758L14.1329 7.34372L14.1529 7.32229L16.2144 7.83801C16.334 7.86806 16.4594 7.86662 16.5783 7.83383C16.6972 7.80103 16.8056 7.738 16.8929 7.65086L19.7501 4.79372C19.84 4.70432 19.9044 4.59261 19.9369 4.47005C19.9693 4.3475 19.9685 4.21852 19.9347 4.09635C19.9008 3.97419 19.835 3.86325 19.7441 3.77491C19.6531 3.68658 19.5403 3.62404 19.4172 3.59372L16.9758 2.98515L16.3644 0.542293ZM10.4101 1.08515C10.4297 1.36854 10.336 1.64812 10.1495 1.86243C9.96308 2.07674 9.69916 2.20823 9.41578 2.22801C7.92321 2.33144 6.4917 2.86119 5.29136 3.75431C4.09102 4.64743 3.1723 5.86637 2.64437 7.26629C2.11645 8.66621 2.00151 10.1883 2.31321 11.6516C2.62491 13.1149 3.35015 14.458 4.40275 15.5212C5.45535 16.5845 6.79107 17.3232 8.25118 17.6496C9.7113 17.9761 11.2344 17.8764 12.6396 17.3626C14.0448 16.8488 15.2729 15.9424 16.178 14.7511C17.0832 13.5599 17.6273 12.1338 17.7458 10.6423C17.7683 10.3589 17.9025 10.0961 18.1189 9.91159C18.3352 9.72714 18.616 9.63618 18.8994 9.65872C19.1828 9.68126 19.4456 9.81547 19.6301 10.0318C19.8145 10.2481 19.9055 10.5289 19.8829 10.8123C19.7317 12.7126 19.0382 14.5296 17.8848 16.0473C16.7314 17.5651 15.1665 18.7199 13.3761 19.3744C11.5856 20.029 9.64495 20.1558 7.78457 19.7399C5.92418 19.3239 4.2223 18.3827 2.88112 17.028C1.53994 15.6733 0.615828 13.962 0.218586 12.0975C-0.178655 10.2331 -0.0323322 8.29375 0.640171 6.51C1.31267 4.72625 2.48309 3.17303 4.01236 2.03489C5.54163 0.89675 7.36548 0.221524 9.26721 0.0894353C9.5506 0.0698087 9.83018 0.163522 10.0445 0.349972C10.2588 0.536422 10.3903 0.801775 10.4101 1.08515ZM9.45007 5.79658C9.50141 5.92762 9.52642 6.06748 9.52369 6.20819C9.52096 6.3489 9.49054 6.48769 9.43416 6.61664C9.37777 6.74559 9.29654 6.86216 9.1951 6.95971C9.09365 7.05726 8.97398 7.13386 8.84293 7.18515C8.37442 7.36893 7.95909 7.66656 7.63448 8.05114C7.30988 8.43573 7.08623 8.89515 6.98375 9.38787C6.88127 9.88059 6.90319 10.3911 7.04753 10.8732C7.19187 11.3553 7.45408 11.7939 7.81046 12.1492C8.16684 12.5046 8.60616 12.7655 9.0887 12.9084C9.57124 13.0514 10.0818 13.0718 10.5742 12.9679C11.0666 12.864 11.5254 12.639 11.909 12.3133C12.2927 11.9875 12.5891 11.5713 12.7715 11.1023C12.8225 10.9712 12.8989 10.8514 12.9962 10.7497C13.0935 10.6481 13.2099 10.5666 13.3387 10.51C13.4675 10.4534 13.6062 10.4226 13.7469 10.4196C13.8876 10.4166 14.0275 10.4413 14.1586 10.4923C14.2898 10.5433 14.4096 10.6197 14.5112 10.717C14.6128 10.8143 14.6943 10.9307 14.7509 11.0595C14.8076 11.1883 14.8383 11.327 14.8413 11.4677C14.8444 11.6084 14.8197 11.7483 14.7686 11.8794C14.4571 12.6804 13.9508 13.3911 13.2956 13.9473C12.6403 14.5034 11.8568 14.8875 11.0159 15.0648C10.1749 15.2421 9.30307 15.2071 8.47908 14.9628C7.65509 14.7185 6.90497 14.2727 6.29655 13.6657C5.68812 13.0587 5.24056 12.3096 4.99435 11.4862C4.74813 10.6628 4.711 9.79101 4.88634 8.94964C5.06167 8.10828 5.44393 7.32388 5.99856 6.66735C6.55318 6.01083 7.26269 5.50288 8.06293 5.18944C8.3274 5.0862 8.62204 5.09216 8.88212 5.206C9.14221 5.31983 9.34648 5.53225 9.45007 5.79658Z" fill="var(--fill-0, #003E93)"/>
</svg>
